<mxfile host="65bd71144e">
    <diagram id="yQj1N9cfQDN9z88ztcWO" name="Page-1">
        <mxGraphModel dx="1690" dy="1172" grid="1" gridSize="10" guides="1" tooltips="1" connect="1" arrows="1" fold="1" page="1" pageScale="1" pageWidth="827" pageHeight="1169" math="0" shadow="0">
            <root>
                <mxCell id="0"/>
                <mxCell id="1" parent="0"/>
                <mxCell id="VJGBmHdIMfrh1yPn0Isi-20" value="&lt;b&gt;Gateway&lt;/b&gt;" style="rounded=1;whiteSpace=wrap;html=1;fillColor=none;dashed=1;strokeWidth=1;perimeterSpacing=0;align=center;verticalAlign=top;" parent="1" vertex="1">
                    <mxGeometry x="110" y="291" width="570" height="115" as="geometry"/>
                </mxCell>
                <mxCell id="VJGBmHdIMfrh1yPn0Isi-21" value="&lt;b&gt;Library server&lt;/b&gt;" style="rounded=1;whiteSpace=wrap;html=1;fillColor=none;dashed=1;strokeWidth=1;perimeterSpacing=0;align=center;verticalAlign=top;" parent="1" vertex="1">
                    <mxGeometry x="270" y="435" width="270" height="140" as="geometry"/>
                </mxCell>
                <mxCell id="VJGBmHdIMfrh1yPn0Isi-17" value="&lt;b&gt;Browser&lt;/b&gt;" style="rounded=1;whiteSpace=wrap;html=1;fillColor=none;dashed=1;strokeWidth=1;perimeterSpacing=0;align=center;verticalAlign=top;" parent="1" vertex="1">
                    <mxGeometry x="260" y="130" width="350" height="110" as="geometry"/>
                </mxCell>
                <mxCell id="VJGBmHdIMfrh1yPn0Isi-6" style="edgeStyle=orthogonalEdgeStyle;orthogonalLoop=1;jettySize=auto;html=1;curved=1;" parent="1" source="VJGBmHdIMfrh1yPn0Isi-3" target="VJGBmHdIMfrh1yPn0Isi-5" edge="1">
                    <mxGeometry relative="1" as="geometry"/>
                </mxCell>
                <mxCell id="VJGBmHdIMfrh1yPn0Isi-18" style="edgeStyle=orthogonalEdgeStyle;curved=1;orthogonalLoop=1;jettySize=auto;html=1;entryX=0.5;entryY=0;entryDx=0;entryDy=0;" parent="1" source="VJGBmHdIMfrh1yPn0Isi-3" target="VJGBmHdIMfrh1yPn0Isi-7" edge="1">
                    <mxGeometry relative="1" as="geometry"/>
                </mxCell>
                <mxCell id="3" style="edgeStyle=orthogonalEdgeStyle;rounded=0;orthogonalLoop=1;jettySize=auto;html=1;" edge="1" parent="1" source="VJGBmHdIMfrh1yPn0Isi-3" target="VJGBmHdIMfrh1yPn0Isi-8">
                    <mxGeometry relative="1" as="geometry">
                        <Array as="points">
                            <mxPoint x="340" y="260"/>
                            <mxPoint x="620" y="260"/>
                        </Array>
                    </mxGeometry>
                </mxCell>
                <mxCell id="VJGBmHdIMfrh1yPn0Isi-3" value="React UI" style="ellipse;whiteSpace=wrap;html=1;" parent="1" vertex="1">
                    <mxGeometry x="290" y="160" width="100" height="60" as="geometry"/>
                </mxCell>
                <mxCell id="VJGBmHdIMfrh1yPn0Isi-5" value="Decoder" style="rounded=0;whiteSpace=wrap;html=1;" parent="1" vertex="1">
                    <mxGeometry x="440" y="160" width="90" height="60" as="geometry"/>
                </mxCell>
                <mxCell id="VJGBmHdIMfrh1yPn0Isi-15" style="edgeStyle=orthogonalEdgeStyle;curved=1;orthogonalLoop=1;jettySize=auto;html=1;" parent="1" source="VJGBmHdIMfrh1yPn0Isi-7" target="VJGBmHdIMfrh1yPn0Isi-8" edge="1">
                    <mxGeometry relative="1" as="geometry"/>
                </mxCell>
                <mxCell id="VJGBmHdIMfrh1yPn0Isi-16" style="edgeStyle=orthogonalEdgeStyle;curved=1;orthogonalLoop=1;jettySize=auto;html=1;" parent="1" source="VJGBmHdIMfrh1yPn0Isi-7" target="VJGBmHdIMfrh1yPn0Isi-13" edge="1">
                    <mxGeometry relative="1" as="geometry"/>
                </mxCell>
                <mxCell id="VJGBmHdIMfrh1yPn0Isi-19" style="edgeStyle=orthogonalEdgeStyle;curved=1;orthogonalLoop=1;jettySize=auto;html=1;" parent="1" source="VJGBmHdIMfrh1yPn0Isi-7" target="VJGBmHdIMfrh1yPn0Isi-11" edge="1">
                    <mxGeometry relative="1" as="geometry"/>
                </mxCell>
                <mxCell id="VJGBmHdIMfrh1yPn0Isi-7" value="Explorer" style="rounded=0;whiteSpace=wrap;html=1;" parent="1" vertex="1">
                    <mxGeometry x="290" y="321" width="100" height="60" as="geometry"/>
                </mxCell>
                <mxCell id="VJGBmHdIMfrh1yPn0Isi-8" value="Streaming services" style="ellipse;shape=cloud;whiteSpace=wrap;html=1;" parent="1" vertex="1">
                    <mxGeometry x="570" y="311" width="100" height="80" as="geometry"/>
                </mxCell>
                <mxCell id="VJGBmHdIMfrh1yPn0Isi-9" value="MySQL or SQLite" style="shape=cylinder3;whiteSpace=wrap;html=1;boundedLbl=1;backgroundOutline=1;size=15;" parent="1" vertex="1">
                    <mxGeometry x="447" y="464" width="76" height="90" as="geometry"/>
                </mxCell>
                <mxCell id="VJGBmHdIMfrh1yPn0Isi-11" value="Downloaded Tracks" style="shape=cylinder3;whiteSpace=wrap;html=1;boundedLbl=1;backgroundOutline=1;size=15;" parent="1" vertex="1">
                    <mxGeometry x="144" y="306" width="76" height="90" as="geometry"/>
                </mxCell>
                <mxCell id="VJGBmHdIMfrh1yPn0Isi-14" style="edgeStyle=orthogonalEdgeStyle;curved=1;orthogonalLoop=1;jettySize=auto;html=1;entryX=0;entryY=0.5;entryDx=0;entryDy=0;entryPerimeter=0;" parent="1" source="VJGBmHdIMfrh1yPn0Isi-13" target="VJGBmHdIMfrh1yPn0Isi-9" edge="1">
                    <mxGeometry relative="1" as="geometry"/>
                </mxCell>
                <mxCell id="VJGBmHdIMfrh1yPn0Isi-13" value="Library" style="rounded=0;whiteSpace=wrap;html=1;" parent="1" vertex="1">
                    <mxGeometry x="290" y="477" width="100" height="55" as="geometry"/>
                </mxCell>
            </root>
        </mxGraphModel>
    </diagram>
</mxfile>
